# xmcd
#
# Track frame offsets:
# 150
# 12921
# 24718
# 37316
# 53760
# 65636
# 76871
# 87813
# 99392
# 112067
# 123824
# 138795
# 150946
# 162677
# 171338
# 183840
# 197647
# 212079
# 222582
# 234114
#
# Disc length: 3310 seconds
#
#
# Revision: 5
# Processed by: cddbd v1.5.1PL2 Copyright (c) Steve Scherf et al.
# Submitted via: FreeRIP 2.944 
#
DISCID=0d0cec14
DTITLE=Variuos Artists 20 Country Greats Vol. 13 - 20 Country Greats Vol. 13
DYEAR=1999
DGENRE=Country
TTITLE0=Carl Perkins - Put Your Cat Clothes On
TTITLE1=Mickey Gilley - Valley Of Tears
TTITLE2=Conway Twitty - I See The Want To In Your Eyes
TTITLE3=Barbara Fairchild - Love Is Looking In Someones Heart
TTITLE4=Bob Wills - China Town
TTITLE5=Barbara Mandrell - Just A Pickin'
TTITLE6=Don Williams - It Must Be Love
TTITLE7=Eddie Raven - Desperate Dreams
TTITLE8=Ann Murray - All The Time
TTITLE9=Patsy Cline - Today, Tommorrow And Forever
TTITLE10=Porter Wagoner - Raining Blues At Midnight
TTITLE11=Razzy Bailey - Old Nohomer
TTITLE12=Barbara Mandrell and David Houston - Lovin' You Is Worth It
TTITLE13=Mickey Gilley - My Babe
TTITLE14=Ronnie McDowell - Older Women Make Good Lovers
TTITLE15=Freddy Fender - Jamaica Farewell
TTITLE16=Gail Davies - Good Lovin' Man
TTITLE17=George Jones - Let A Little Lovin' Come In
TTITLE18=Hoyt Axton - No No Song
TTITLE19=Jimmy Dean - Waking Up To Love
EXTD=
EXTT0=
EXTT1=
EXTT2=
EXTT3=
EXTT4=
EXTT5=
EXTT6=
EXTT7=
EXTT8=
EXTT9=
EXTT10=
EXTT11=
EXTT12=
EXTT13=
EXTT14=
EXTT15=
EXTT16=
EXTT17=
EXTT18=
EXTT19=
PLAYORDER=
